<mxfile host="app.diagrams.net" modified="2023-08-04T09:10:11.808Z" agent="Mozilla/5.0 (Macintosh; Intel Mac OS X 10_15_7) AppleWebKit/537.36 (KHTML, like Gecko) Chrome/115.0.0.0 Safari/537.36" etag="mznS_D0je7kuxvgdlYIH" version="21.6.6" type="device">
  <diagram name="‫עמוד-1‬" id="fg9HRb3yh7vx2WXMNw0Z">
    <mxGraphModel dx="1434" dy="683" grid="1" gridSize="10" guides="1" tooltips="1" connect="1" arrows="1" fold="1" page="1" pageScale="1" pageWidth="827" pageHeight="1169" math="0" shadow="0">
      <root>
        <mxCell id="0" />
        <mxCell id="1" parent="0" />
        <mxCell id="ukhcd9omaT3ZAiGhdKqI-1" value="&lt;b&gt;מסך התחברות&lt;/b&gt;" style="rounded=0;whiteSpace=wrap;html=1;rotation=0;align=center;" vertex="1" parent="1">
          <mxGeometry x="329" y="130" width="170" height="300" as="geometry" />
        </mxCell>
        <mxCell id="ukhcd9omaT3ZAiGhdKqI-2" value="מסך התחברות" style="text;html=1;align=center;verticalAlign=middle;resizable=0;points=[];autosize=1;strokeColor=none;fillColor=none;" vertex="1" parent="1">
          <mxGeometry x="364" y="90" width="100" height="30" as="geometry" />
        </mxCell>
        <mxCell id="ukhcd9omaT3ZAiGhdKqI-5" value="&lt;p style=&quot;line-height: 140%;&quot;&gt;&lt;font style=&quot;font-size: 23px;&quot;&gt;&lt;b&gt;Business Screen&lt;/b&gt;&lt;/font&gt;&lt;/p&gt;" style="text;html=1;align=center;verticalAlign=middle;resizable=0;points=[];autosize=1;strokeColor=none;fillColor=none;" vertex="1" parent="1">
          <mxGeometry x="300" width="210" height="60" as="geometry" />
        </mxCell>
        <mxCell id="ukhcd9omaT3ZAiGhdKqI-6" value="&lt;span style=&quot;border-color: var(--border-color);&quot;&gt;&lt;b&gt;מסך רישום 1 עסק&lt;/b&gt;&lt;br&gt;שם מלא&lt;br&gt;&lt;/span&gt;" style="rounded=0;whiteSpace=wrap;html=1;rotation=0;align=center;" vertex="1" parent="1">
          <mxGeometry x="44" y="520" width="170" height="300" as="geometry" />
        </mxCell>
        <mxCell id="ukhcd9omaT3ZAiGhdKqI-7" value="מסכי רישום" style="text;html=1;align=center;verticalAlign=middle;resizable=0;points=[];autosize=1;strokeColor=none;fillColor=none;" vertex="1" parent="1">
          <mxGeometry x="365" y="470" width="80" height="30" as="geometry" />
        </mxCell>
        <mxCell id="ukhcd9omaT3ZAiGhdKqI-8" value="&lt;b&gt;מסך רישום 2 עסק&lt;/b&gt;&lt;br&gt;סוג עסק" style="rounded=0;whiteSpace=wrap;html=1;rotation=0;align=center;" vertex="1" parent="1">
          <mxGeometry x="230" y="520" width="170" height="300" as="geometry" />
        </mxCell>
        <mxCell id="ukhcd9omaT3ZAiGhdKqI-11" style="edgeStyle=orthogonalEdgeStyle;rounded=0;orthogonalLoop=1;jettySize=auto;html=1;" edge="1" parent="1" source="ukhcd9omaT3ZAiGhdKqI-9" target="ukhcd9omaT3ZAiGhdKqI-10">
          <mxGeometry relative="1" as="geometry" />
        </mxCell>
        <mxCell id="ukhcd9omaT3ZAiGhdKqI-9" value="&lt;b&gt;מסך רישום 3 עסק&lt;/b&gt;&lt;br&gt;מספר פלאפון&lt;br&gt;אימייל&lt;br&gt;כתובת" style="rounded=0;whiteSpace=wrap;html=1;rotation=0;align=center;" vertex="1" parent="1">
          <mxGeometry x="414" y="520" width="170" height="300" as="geometry" />
        </mxCell>
        <mxCell id="ukhcd9omaT3ZAiGhdKqI-12" style="edgeStyle=orthogonalEdgeStyle;rounded=0;orthogonalLoop=1;jettySize=auto;html=1;entryX=0.5;entryY=0;entryDx=0;entryDy=0;exitX=0.5;exitY=0;exitDx=0;exitDy=0;" edge="1" parent="1" source="ukhcd9omaT3ZAiGhdKqI-10" target="ukhcd9omaT3ZAiGhdKqI-9">
          <mxGeometry relative="1" as="geometry">
            <Array as="points">
              <mxPoint x="710" y="470" />
              <mxPoint x="499" y="470" />
            </Array>
          </mxGeometry>
        </mxCell>
        <mxCell id="ukhcd9omaT3ZAiGhdKqI-13" value="&lt;font style=&quot;font-size: 16px;&quot;&gt;לא&lt;/font&gt;" style="edgeLabel;html=1;align=center;verticalAlign=middle;resizable=0;points=[];" vertex="1" connectable="0" parent="ukhcd9omaT3ZAiGhdKqI-12">
          <mxGeometry x="0.0608" y="-1" relative="1" as="geometry">
            <mxPoint as="offset" />
          </mxGeometry>
        </mxCell>
        <mxCell id="ukhcd9omaT3ZAiGhdKqI-18" style="edgeStyle=orthogonalEdgeStyle;rounded=0;orthogonalLoop=1;jettySize=auto;html=1;entryX=1;entryY=0.5;entryDx=0;entryDy=0;exitX=1;exitY=0.5;exitDx=0;exitDy=0;" edge="1" parent="1" source="ukhcd9omaT3ZAiGhdKqI-10" target="ukhcd9omaT3ZAiGhdKqI-1">
          <mxGeometry relative="1" as="geometry">
            <Array as="points">
              <mxPoint x="790" y="670" />
              <mxPoint x="790" y="280" />
            </Array>
          </mxGeometry>
        </mxCell>
        <mxCell id="ukhcd9omaT3ZAiGhdKqI-19" value="&lt;font style=&quot;font-size: 17px;&quot;&gt;כן&lt;/font&gt;" style="edgeLabel;html=1;align=center;verticalAlign=middle;resizable=0;points=[];" vertex="1" connectable="0" parent="ukhcd9omaT3ZAiGhdKqI-18">
          <mxGeometry x="-0.339" y="-1" relative="1" as="geometry">
            <mxPoint as="offset" />
          </mxGeometry>
        </mxCell>
        <mxCell id="ukhcd9omaT3ZAiGhdKqI-10" value="האם היוזר קיים?" style="rhombus;whiteSpace=wrap;html=1;" vertex="1" parent="1">
          <mxGeometry x="660" y="620" width="100" height="100" as="geometry" />
        </mxCell>
        <mxCell id="ukhcd9omaT3ZAiGhdKqI-14" value="&lt;span style=&quot;border-color: var(--border-color);&quot;&gt;&lt;b&gt;מסך פרופיל&lt;/b&gt;&lt;br&gt;תמונת רקע&lt;br&gt;תמונת פרופיל&lt;br&gt;ביו&lt;br&gt;מידע אישי על בעל העסק&lt;br&gt;שירותים&lt;br&gt;שעות פעילות&lt;br&gt;&lt;/span&gt;" style="rounded=0;whiteSpace=wrap;html=1;rotation=0;align=center;" vertex="1" parent="1">
          <mxGeometry x="670" y="910" width="150" height="300" as="geometry" />
        </mxCell>
        <mxCell id="ukhcd9omaT3ZAiGhdKqI-15" value="מסכי אפליקציה" style="text;html=1;align=center;verticalAlign=middle;resizable=0;points=[];autosize=1;strokeColor=none;fillColor=none;" vertex="1" parent="1">
          <mxGeometry x="359" y="860" width="110" height="30" as="geometry" />
        </mxCell>
        <mxCell id="ukhcd9omaT3ZAiGhdKqI-16" value="&lt;b&gt;מסך יומן&lt;/b&gt;&lt;br&gt;יומן ימים&lt;br&gt;יומן שעות" style="rounded=0;whiteSpace=wrap;html=1;rotation=0;align=center;" vertex="1" parent="1">
          <mxGeometry x="510" y="910" width="150" height="300" as="geometry" />
        </mxCell>
        <mxCell id="ukhcd9omaT3ZAiGhdKqI-17" value="&lt;b&gt;מסך הוסף תור&lt;/b&gt;&lt;br&gt;(אם יש עובדים אז למי)&lt;br&gt;לאיזה שירות&lt;br&gt;לאיזה תאריך&lt;br&gt;לאיזה שעה&lt;br&gt;כפתור אישור" style="rounded=0;whiteSpace=wrap;html=1;rotation=0;align=center;" vertex="1" parent="1">
          <mxGeometry x="340" y="910" width="159" height="300" as="geometry" />
        </mxCell>
        <mxCell id="ukhcd9omaT3ZAiGhdKqI-20" value="&lt;b&gt;מסך לקוחות&lt;/b&gt;&lt;br&gt;כרטיסי לקוחות&lt;br&gt;יכילו שם מלא&lt;br&gt;פלאפון&lt;br&gt;ורשימה של התורים האחרונים עם סטטוס אחרון&lt;br&gt;כפתורים של חסימה/קביעת תור/שליחת push" style="rounded=0;whiteSpace=wrap;html=1;rotation=0;align=center;" vertex="1" parent="1">
          <mxGeometry x="180" y="910" width="149" height="300" as="geometry" />
        </mxCell>
        <mxCell id="ukhcd9omaT3ZAiGhdKqI-21" value="&lt;b&gt;מסך סטטיסטיקה&lt;br&gt;&lt;/b&gt;" style="rounded=0;whiteSpace=wrap;html=1;rotation=0;align=center;" vertex="1" parent="1">
          <mxGeometry x="10" y="910" width="159" height="300" as="geometry" />
        </mxCell>
        <mxCell id="ukhcd9omaT3ZAiGhdKqI-22" value="&lt;font style=&quot;font-size: 23px;&quot;&gt;&lt;b&gt;user screen&lt;/b&gt;&lt;/font&gt;" style="text;html=1;align=center;verticalAlign=middle;resizable=0;points=[];autosize=1;strokeColor=none;fillColor=none;" vertex="1" parent="1">
          <mxGeometry x="339" y="1390" width="150" height="40" as="geometry" />
        </mxCell>
        <mxCell id="ukhcd9omaT3ZAiGhdKqI-23" value="&lt;b&gt;מסך התחברות&lt;/b&gt;&lt;br&gt;שם מלא&lt;br&gt;פלאפון" style="rounded=0;whiteSpace=wrap;html=1;rotation=0;align=center;" vertex="1" parent="1">
          <mxGeometry x="329" y="1490" width="170" height="300" as="geometry" />
        </mxCell>
        <mxCell id="ukhcd9omaT3ZAiGhdKqI-24" value="מסך התחברות" style="text;html=1;align=center;verticalAlign=middle;resizable=0;points=[];autosize=1;strokeColor=none;fillColor=none;" vertex="1" parent="1">
          <mxGeometry x="364" y="1450" width="100" height="30" as="geometry" />
        </mxCell>
        <mxCell id="ukhcd9omaT3ZAiGhdKqI-25" value="&lt;b&gt;תורים&lt;br&gt;כרטיסי תורים עדכניים&lt;br&gt;&lt;/b&gt;" style="rounded=0;whiteSpace=wrap;html=1;rotation=0;align=center;" vertex="1" parent="1">
          <mxGeometry x="588" y="1840" width="171" height="300" as="geometry" />
        </mxCell>
        <mxCell id="ukhcd9omaT3ZAiGhdKqI-26" value="מסכי לקוח" style="text;html=1;align=center;verticalAlign=middle;resizable=0;points=[];autosize=1;strokeColor=none;fillColor=none;" vertex="1" parent="1">
          <mxGeometry x="374" y="1810" width="80" height="30" as="geometry" />
        </mxCell>
        <mxCell id="ukhcd9omaT3ZAiGhdKqI-31" value="" style="edgeStyle=orthogonalEdgeStyle;rounded=0;orthogonalLoop=1;jettySize=auto;html=1;" edge="1" parent="1" source="ukhcd9omaT3ZAiGhdKqI-27" target="ukhcd9omaT3ZAiGhdKqI-29">
          <mxGeometry relative="1" as="geometry" />
        </mxCell>
        <mxCell id="ukhcd9omaT3ZAiGhdKqI-27" value="&lt;b&gt;עסקים&amp;nbsp;&lt;br&gt;כרטיסי עסקים שנרשמו אליהם&lt;br&gt;&lt;/b&gt;" style="rounded=0;whiteSpace=wrap;html=1;rotation=0;align=center;" vertex="1" parent="1">
          <mxGeometry x="399" y="1840" width="171" height="300" as="geometry" />
        </mxCell>
        <mxCell id="ukhcd9omaT3ZAiGhdKqI-28" value="&lt;b&gt;קביעת תור חדש&lt;br&gt;&lt;br&gt;&lt;/b&gt;" style="rounded=0;whiteSpace=wrap;html=1;rotation=0;align=center;" vertex="1" parent="1">
          <mxGeometry x="80" y="1840" width="171" height="300" as="geometry" />
        </mxCell>
        <mxCell id="ukhcd9omaT3ZAiGhdKqI-32" value="" style="edgeStyle=orthogonalEdgeStyle;rounded=0;orthogonalLoop=1;jettySize=auto;html=1;" edge="1" parent="1" source="ukhcd9omaT3ZAiGhdKqI-29" target="ukhcd9omaT3ZAiGhdKqI-28">
          <mxGeometry relative="1" as="geometry" />
        </mxCell>
        <mxCell id="ukhcd9omaT3ZAiGhdKqI-29" value="לחץ לקביעת תור" style="rhombus;whiteSpace=wrap;html=1;" vertex="1" parent="1">
          <mxGeometry x="274.5" y="1940" width="100" height="100" as="geometry" />
        </mxCell>
      </root>
    </mxGraphModel>
  </diagram>
</mxfile>
